<mxfile host="app.diagrams.net" modified="2025-01-04T05:45:02.255Z" agent="Mozilla/5.0 (Macintosh; Intel Mac OS X 10_15_7) AppleWebKit/537.36 (KHTML, like Gecko) Chrome/131.0.0.0 Safari/537.36" version="24.6.2" etag="QfeTZ88KZ1GT0tnedxp8" type="github">
  <diagram name="第 1 页" id="GrE2KXOEiQts9KoypQii">
    <mxGraphModel>
      <root>
        <mxCell id="0" />
        <mxCell id="1" parent="0" />
      </root>
    </mxGraphModel>
  </diagram>
</mxfile>
